<?xml version="1.0" encoding="UTF-8"?>
<!DOCTYPE svg PUBLIC "-//W3C//DTD SVG 1.1//EN" "http://www.w3.org/Graphics/SVG/1.1/DTD/svg11.dtd">
<svg version="1.1" xmlns="http://www.w3.org/2000/svg" xmlns:xlink="http://www.w3.org/1999/xlink" x="0px" y="0px" width="512" height="512" viewBox="0, 0, 512, 512">
  <g id="Layer 1">
    <g>
      <g>
        <g>
          <path d="M253.914,53.964 L356.707,53.732 L459.5,53.5 L459.268,156.293 L459.036,259.086 L356.475,156.525 z" fill="#000000"/>
          <path d="M253.914,53.964 L356.707,53.732 L459.5,53.5 L459.268,156.293 L459.036,259.086 L356.475,156.525 z" fill-opacity="0" stroke="#000000" stroke-width="40"/>
        </g>
        <path d="M356.745,156.795 L303.344,210.195" fill-opacity="0" stroke="#000000" stroke-width="103" stroke-linecap="round"/>
      </g>
      <g>
        <g>
          <path d="M259.086,459.036 L156.293,459.268 L53.5,459.5 L53.732,356.707 L53.964,253.914 L156.525,356.475 z" fill="#000000"/>
          <path d="M259.086,459.036 L156.293,459.268 L53.5,459.5 L53.732,356.707 L53.964,253.914 L156.525,356.475 z" fill-opacity="0" stroke="#000000" stroke-width="40"/>
        </g>
        <path d="M156.255,356.205 L209.656,302.805" fill-opacity="0" stroke="#000000" stroke-width="103" stroke-linecap="round"/>
      </g>
    </g>
  </g>
  <defs/>
</svg>
