<?xml version="1.0" encoding="UTF-8"?>
<!DOCTYPE svg PUBLIC "-//W3C//DTD SVG 1.1//EN" "http://www.w3.org/Graphics/SVG/1.1/DTD/svg11.dtd">
<svg version="1.1" xmlns="http://www.w3.org/2000/svg" xmlns:xlink="http://www.w3.org/1999/xlink" x="0px" y="0px" width="300" height="500" viewBox="0, 0, 300, 500">
  <g id="Layer 1">
    <path d="M60.094,480 C43.474,480 30,466.815 30,450.551 L30,59.449 C30,43.185 43.474,30 60.094,30 L239.906,30 C256.526,30 270,43.185 270,59.449 L270,450.551 C270,466.815 256.526,480 239.906,480 z M60.094,480" stroke="#000000" stroke-width="1" stroke-opacity="0" fill="#000000"/>
  </g>
  <g id="screen">
    <path d="M60,85 L240,85 L240,385 L60,385 z" stroke="#000000" stroke-width="1" stroke-opacity="0" fill="#FFFFFF"/>
  </g>
  <g id="button">
    <path d="M164.207,417.793 C172.054,425.639 172.054,438.361 164.207,446.207 C156.361,454.054 143.639,454.054 135.793,446.207 C127.946,438.361 127.946,425.639 135.793,417.793 C143.639,409.946 156.361,409.946 164.207,417.793" stroke="#000000" stroke-width="1" stroke-opacity="0" fill="#FFFFFF"/>
    <path d="M122.658,61 C121.19,61 120,60.012 120,58.793 L120,57.207 C120,55.988 121.19,55 122.658,55 L177.342,55 C178.81,55 180,55.988 180,57.207 L180,58.793 C180,60.012 178.81,61 177.342,61 z M122.658,61" stroke="#000000" stroke-width="1" stroke-opacity="0" fill="#FFFFFF"/>
  </g>
  <defs/>
</svg>
